# xmcd CD database file
#
# Track frame offsets:
#	150
#	37133
#	65365
#	98301
#	118711
#	145553
#	179585
#	223708
#
# Disc length: 3273 seconds
#
# Revision: 0
# Processed by: cddbd v1.5.1PL0 Copyright (c) Steve Scherf et al.
# Submitted via: CDex 1.51
#
DISCID=6e0cc708
DTITLE=Nelson Cascais Quintet - Ciclope
DYEAR=2001
DGENRE=Jazz
TTITLE0=l.W.D.
TTITLE1=bALADA PARA sARA
TTITLE2=cICLOPE
TTITLE3=Thre´s a stain on my shirt
TTITLE4=Ting lei
TTITLE5=Looking back
TTITLE6=The soul of the barrio
TTITLE7=Sei lá
EXTD=YEAR: 2001
EXTT0=
EXTT1=
EXTT2=
EXTT3=
EXTT4=
EXTT5=
EXTT6=
EXTT7=
PLAYORDER=
